<mxfile host="app.diagrams.net" modified="2023-09-12T07:40:40.554Z" agent="Mozilla/5.0 (Macintosh; Intel Mac OS X 10_15_7) AppleWebKit/537.36 (KHTML, like Gecko) Chrome/116.0.0.0 Safari/537.36" version="21.7.4" etag="0jEXRXaKV_pnpvhEDQdf" type="github">
  <diagram name="第 1 页" id="oNQZPwbsTFcgaaCSbpKm">
    <mxGraphModel>
      <root>
        <mxCell id="0" />
        <mxCell id="1" parent="0" />
      </root>
    </mxGraphModel>
  </diagram>
</mxfile>
